<?xml version="1.0" standalone="no"?>
<!DOCTYPE svg PUBLIC "-//W3C//DTD SVG 20010904//EN"
 "http://www.w3.org/TR/2001/REC-SVG-20010904/DTD/svg10.dtd">
<svg version="1.0" xmlns="http://www.w3.org/2000/svg"
 width="300.000000pt" height="300.000000pt" viewBox="0 0 300.000000 300.000000"
 preserveAspectRatio="xMidYMid meet">
<metadata>
Created by potrace 1.10, written by Peter Selinger 2001-2011
</metadata>
<g transform="translate(0.000000,300.000000) scale(0.100000,-0.100000)"
fill="#fec60a" stroke="none">
<path d="M1465 2706 c-19 -12 -250 -147 -532 -308 l-123 -70 148 -85 c81 -47
156 -89 167 -95 17 -7 52 10 194 91 96 56 177 101 182 101 4 0 85 -45 179
-100 95 -55 175 -100 177 -100 3 0 68 37 146 82 78 45 152 87 165 93 21 12 16
16 -90 77 -62 36 -216 124 -341 196 -125 73 -233 132 -240 132 -7 0 -21 -6
-32 -14z m81 -31 c30 -20 445 -261 528 -306 68 -36 69 -37 45 -51 -111 -69
-162 -98 -210 -123 l-57 -29 -41 27 c-22 15 -42 27 -45 27 -2 0 -60 32 -127
71 -68 39 -130 71 -139 72 -8 0 -90 -43 -182 -96 -92 -53 -173 -97 -180 -97
-7 0 -29 10 -48 23 -19 13 -77 47 -127 76 -51 29 -93 56 -93 60 0 6 134 87
250 150 125 68 207 115 220 126 8 7 38 25 65 40 28 15 54 31 60 36 14 14 58
11 81 -6z"/>
<path d="M487 2142 l-77 -47 2 -629 3 -630 55 -31 c58 -33 217 -125 647 -374
144 -83 263 -151 265 -151 2 0 3 85 3 189 l0 189 -320 184 -320 185 -3 342
c-1 187 0 341 4 341 3 0 164 -92 357 -203 194 -112 362 -209 375 -216 26 -14
8 -22 352 176 85 50 214 124 287 167 73 42 135 76 138 76 3 0 4 -154 3 -342
l-3 -342 -315 -181 -315 -182 -5 -191 c-3 -106 -2 -192 1 -192 4 0 38 19 75
42 38 23 173 101 299 173 127 73 311 180 410 237 l180 104 3 631 2 630 -82 47
c-45 25 -89 44 -97 41 -9 -3 -217 -123 -463 -266 l-448 -261 -317 185 c-551
320 -599 347 -609 346 -5 0 -44 -22 -87 -47z m222 -50 c121 -72 168 -98 209
-119 17 -9 32 -20 32 -25 0 -4 5 -8 11 -8 6 0 44 -19 83 -43 39 -24 78 -46 86
-50 8 -5 24 -13 35 -20 142 -85 325 -187 335 -187 8 0 86 42 175 94 88 51 176
103 195 113 19 11 97 57 174 102 76 44 140 81 142 81 2 0 47 26 101 59 54 32
108 62 120 65 22 7 80 -17 137 -57 l29 -21 -6 -610 c-7 -610 -7 -611 -29 -626
-11 -8 -93 -57 -182 -108 -89 -52 -232 -135 -319 -185 -86 -51 -185 -108 -220
-127 -34 -20 -88 -50 -119 -69 l-58 -32 0 164 c0 160 1 164 23 175 12 7 43 24
69 40 25 15 93 54 150 86 178 103 322 188 361 214 l37 25 0 342 c0 299 -2 344
-16 356 -13 10 -20 10 -42 -3 -15 -8 -54 -30 -86 -48 -33 -18 -98 -55 -145
-83 -48 -27 -106 -61 -130 -75 -25 -13 -68 -38 -95 -55 -148 -87 -255 -147
-264 -147 -9 0 -163 86 -367 205 -55 32 -136 79 -180 103 -44 25 -83 50 -87
56 -4 6 -8 8 -8 4 0 -4 -23 6 -51 24 -81 50 -83 47 -91 -183 -6 -183 -2 -437
8 -486 4 -22 57 -57 224 -150 31 -17 79 -45 106 -62 27 -17 81 -47 119 -67 39
-20 84 -46 100 -58 17 -12 42 -27 57 -35 l26 -13 1 -165 1 -164 -58 32 c-31
18 -93 53 -137 79 -164 97 -295 170 -304 170 -5 0 -11 4 -13 8 -2 5 -94 60
-205 123 l-203 114 0 620 0 621 63 37 c44 26 69 36 86 32 13 -4 67 -32 120
-63z"/>
</g>
</svg>
